<mxfile host="Electron" agent="Mozilla/5.0 (Windows NT 10.0; Win64; x64) AppleWebKit/537.36 (KHTML, like Gecko) draw.io/26.2.2 Chrome/134.0.6998.178 Electron/35.1.2 Safari/537.36" version="26.2.2">
  <diagram name="Page-1" id="DyrG7OyfPqC4gqiInYc-">
    <mxGraphModel dx="1724" dy="577" grid="1" gridSize="10" guides="1" tooltips="1" connect="1" arrows="1" fold="1" page="1" pageScale="1" pageWidth="850" pageHeight="1100" math="0" shadow="0">
      <root>
        <mxCell id="0" />
        <mxCell id="1" parent="0" />
        <mxCell id="ZYFgmV2ksfETaxVt1tsq-1" value="" style="rounded=0;whiteSpace=wrap;html=1;fillColor=none;dashed=1;strokeColor=light-dark(#797777, #ededed);" vertex="1" parent="1">
          <mxGeometry x="20" y="120" width="140" height="460" as="geometry" />
        </mxCell>
        <mxCell id="ZYFgmV2ksfETaxVt1tsq-2" value="Sources" style="rounded=0;whiteSpace=wrap;html=1;fontSize=24;strokeColor=none;" vertex="1" parent="1">
          <mxGeometry x="20" y="120" width="140" height="40" as="geometry" />
        </mxCell>
        <mxCell id="ZYFgmV2ksfETaxVt1tsq-4" value="" style="rounded=0;whiteSpace=wrap;html=1;fillColor=none;dashed=1;strokeColor=light-dark(#797777, #ededed);" vertex="1" parent="1">
          <mxGeometry x="180" y="120" width="530" height="460" as="geometry" />
        </mxCell>
        <mxCell id="ZYFgmV2ksfETaxVt1tsq-5" value="Data Warehouse" style="rounded=0;whiteSpace=wrap;html=1;fontSize=24;strokeColor=none;" vertex="1" parent="1">
          <mxGeometry x="330" y="100" width="190" height="40" as="geometry" />
        </mxCell>
        <mxCell id="ZYFgmV2ksfETaxVt1tsq-7" value="" style="rounded=0;whiteSpace=wrap;html=1;fillColor=none;dashed=1;strokeColor=light-dark(#797777, #ededed);" vertex="1" parent="1">
          <mxGeometry x="740" y="120" width="140" height="460" as="geometry" />
        </mxCell>
        <mxCell id="ZYFgmV2ksfETaxVt1tsq-8" value="Consume" style="rounded=0;whiteSpace=wrap;html=1;fontSize=24;strokeColor=none;" vertex="1" parent="1">
          <mxGeometry x="740" y="120" width="140" height="40" as="geometry" />
        </mxCell>
        <mxCell id="ZYFgmV2ksfETaxVt1tsq-13" value="Gold Layer" style="rounded=0;whiteSpace=wrap;html=1;fillColor=#fff2cc;strokeColor=#d6b656;fontSize=20;" vertex="1" parent="1">
          <mxGeometry x="533.76" y="154" width="161" height="30" as="geometry" />
        </mxCell>
        <mxCell id="ZYFgmV2ksfETaxVt1tsq-14" value="" style="rounded=0;whiteSpace=wrap;html=1;fillColor=none;strokeColor=#d79b00;fontSize=20;" vertex="1" parent="1">
          <mxGeometry x="532.76" y="190" width="162" height="370" as="geometry" />
        </mxCell>
        <mxCell id="ZYFgmV2ksfETaxVt1tsq-16" value="&lt;b&gt;&lt;font style=&quot;font-size: 13px;&quot;&gt;CRM&lt;/font&gt;&lt;/b&gt;" style="image;aspect=fixed;html=1;points=[];align=center;fontSize=12;image=img/lib/azure2/general/Folder_Blank.svg;" vertex="1" parent="1">
          <mxGeometry x="48.760000000000005" y="180" width="61.61" height="50" as="geometry" />
        </mxCell>
        <mxCell id="ZYFgmV2ksfETaxVt1tsq-18" value="" style="image;aspect=fixed;html=1;points=[];align=center;fontSize=12;image=img/lib/azure2/general/File.svg;" vertex="1" parent="1">
          <mxGeometry x="98.76" y="200" width="32.47" height="40" as="geometry" />
        </mxCell>
        <mxCell id="ZYFgmV2ksfETaxVt1tsq-19" value="&lt;b&gt;ERP&lt;/b&gt;" style="image;aspect=fixed;html=1;points=[];align=center;fontSize=12;image=img/lib/azure2/general/Folder_Blank.svg;" vertex="1" parent="1">
          <mxGeometry x="48.760000000000005" y="270" width="61.61" height="50" as="geometry" />
        </mxCell>
        <mxCell id="ZYFgmV2ksfETaxVt1tsq-20" value="" style="image;aspect=fixed;html=1;points=[];align=center;fontSize=12;image=img/lib/azure2/general/File.svg;" vertex="1" parent="1">
          <mxGeometry x="98.76" y="290" width="32.47" height="40" as="geometry" />
        </mxCell>
        <mxCell id="ZYFgmV2ksfETaxVt1tsq-24" value="" style="endArrow=none;html=1;rounded=0;exitX=0.714;exitY=0.706;exitDx=0;exitDy=0;exitPerimeter=0;entryX=0;entryY=0.703;entryDx=0;entryDy=0;entryPerimeter=0;strokeColor=light-dark(#817979, #595959);" edge="1" parent="1">
          <mxGeometry width="50" height="50" relative="1" as="geometry">
            <mxPoint x="139.98000000000005" y="360.03999999999996" as="sourcePoint" />
            <mxPoint x="40.019999999999996" y="359.02" as="targetPoint" />
          </mxGeometry>
        </mxCell>
        <mxCell id="ZYFgmV2ksfETaxVt1tsq-28" value="" style="html=1;verticalLabelPosition=bottom;align=center;labelBackgroundColor=#ffffff;verticalAlign=top;strokeWidth=2;strokeColor=#d6b656;shadow=0;dashed=0;shape=mxgraph.ios7.icons.data;fillColor=#fff2cc;" vertex="1" parent="1">
          <mxGeometry x="564" y="204" width="101" height="55.1" as="geometry" />
        </mxCell>
        <mxCell id="ZYFgmV2ksfETaxVt1tsq-32" value="" style="shape=singleArrow;whiteSpace=wrap;html=1;fillColor=#b1ddf0;strokeColor=#10739e;" vertex="1" parent="1">
          <mxGeometry x="694.76" y="300" width="55.24" height="60" as="geometry" />
        </mxCell>
        <mxCell id="ZYFgmV2ksfETaxVt1tsq-35" value="Business Ready Data" style="text;html=1;align=center;verticalAlign=middle;whiteSpace=wrap;rounded=0;fontSize=14;" vertex="1" parent="1">
          <mxGeometry x="544.76" y="280.1" width="140" height="30" as="geometry" />
        </mxCell>
        <mxCell id="ZYFgmV2ksfETaxVt1tsq-38" value="" style="endArrow=none;html=1;rounded=0;entryX=0;entryY=0.703;entryDx=0;entryDy=0;entryPerimeter=0;strokeColor=light-dark(#817979, #595959);" edge="1" parent="1">
          <mxGeometry width="50" height="50" relative="1" as="geometry">
            <mxPoint x="674.98" y="320.02" as="sourcePoint" />
            <mxPoint x="564" y="319.99999999999994" as="targetPoint" />
          </mxGeometry>
        </mxCell>
        <mxCell id="ZYFgmV2ksfETaxVt1tsq-39" value="&lt;b&gt;Object Type:&lt;/b&gt; CSV Files&lt;div&gt;&lt;b&gt;&lt;br&gt;&lt;/b&gt;&lt;div&gt;&lt;b&gt;Interface:&lt;/b&gt; Files in folder&lt;/div&gt;&lt;/div&gt;" style="text;html=1;align=center;verticalAlign=middle;whiteSpace=wrap;rounded=0;" vertex="1" parent="1">
          <mxGeometry x="24.38" y="370" width="131.24" height="130" as="geometry" />
        </mxCell>
        <mxCell id="ZYFgmV2ksfETaxVt1tsq-44" value="&lt;div style=&quot;text-align: left;&quot;&gt;&lt;span style=&quot;background-color: transparent; color: light-dark(rgb(0, 0, 0), rgb(255, 255, 255));&quot;&gt;&lt;b&gt;Object Type:&lt;/b&gt;&amp;nbsp;Views&lt;/span&gt;&lt;/div&gt;&lt;div style=&quot;text-align: left;&quot;&gt;&lt;b&gt;&lt;br&gt;&lt;/b&gt;&lt;/div&gt;&lt;div style=&quot;text-align: left;&quot;&gt;&lt;b&gt;No Load:&lt;/b&gt;&lt;/div&gt;&lt;div style=&quot;text-align: left;&quot;&gt;&lt;br&gt;&lt;/div&gt;&lt;div style=&quot;text-align: left;&quot;&gt;&lt;b&gt;Transformations:&amp;nbsp;&lt;/b&gt;&lt;/div&gt;&lt;div style=&quot;text-align: left;&quot;&gt;&lt;ul&gt;&lt;li&gt;Data Integrations&lt;/li&gt;&lt;li&gt;Aggregations&lt;/li&gt;&lt;li&gt;Bussiness logics&lt;/li&gt;&lt;/ul&gt;&lt;/div&gt;&lt;div style=&quot;text-align: left;&quot;&gt;&lt;b style=&quot;background-color: transparent; color: light-dark(rgb(0, 0, 0), rgb(255, 255, 255));&quot;&gt;Data Model&lt;/b&gt;&lt;span style=&quot;background-color: transparent; color: light-dark(rgb(0, 0, 0), rgb(255, 255, 255));&quot;&gt; :&amp;nbsp;&lt;/span&gt;&lt;/div&gt;&lt;div style=&quot;text-align: left;&quot;&gt;&lt;ul&gt;&lt;li&gt;Star Schema&lt;/li&gt;&lt;li&gt;Flat Table&lt;/li&gt;&lt;li&gt;Aggregated table&lt;/li&gt;&lt;/ul&gt;&lt;/div&gt;" style="text;html=1;align=center;verticalAlign=middle;whiteSpace=wrap;rounded=0;" vertex="1" parent="1">
          <mxGeometry x="544.76" y="330" width="140" height="220" as="geometry" />
        </mxCell>
        <mxCell id="ZYFgmV2ksfETaxVt1tsq-45" value="BI and Reporting" style="text;html=1;align=center;verticalAlign=middle;whiteSpace=wrap;rounded=0;" vertex="1" parent="1">
          <mxGeometry x="744.38" y="251" width="131.24" height="70" as="geometry" />
        </mxCell>
        <mxCell id="ZYFgmV2ksfETaxVt1tsq-46" value="Adhoc SQL Queries" style="text;html=1;align=center;verticalAlign=middle;whiteSpace=wrap;rounded=0;" vertex="1" parent="1">
          <mxGeometry x="750" y="351" width="131.24" height="70" as="geometry" />
        </mxCell>
        <mxCell id="ZYFgmV2ksfETaxVt1tsq-47" value="Machine Learning" style="text;html=1;align=center;verticalAlign=middle;whiteSpace=wrap;rounded=0;" vertex="1" parent="1">
          <mxGeometry x="748.76" y="451" width="131.24" height="70" as="geometry" />
        </mxCell>
        <mxCell id="ZYFgmV2ksfETaxVt1tsq-48" value="" style="verticalLabelPosition=bottom;sketch=0;aspect=fixed;html=1;verticalAlign=top;strokeColor=none;align=center;outlineConnect=0;shape=mxgraph.citrix.reporting;" vertex="1" parent="1">
          <mxGeometry x="785" y="221" width="50" height="56.1" as="geometry" />
        </mxCell>
        <mxCell id="ZYFgmV2ksfETaxVt1tsq-49" value="" style="image;aspect=fixed;html=1;points=[];align=center;fontSize=12;image=img/lib/azure2/databases/Azure_SQL.svg;" vertex="1" parent="1">
          <mxGeometry x="778" y="321" width="64" height="46" as="geometry" />
        </mxCell>
        <mxCell id="ZYFgmV2ksfETaxVt1tsq-50" value="" style="points=[];aspect=fixed;html=1;align=center;shadow=0;dashed=0;fillColor=#FF6A00;strokeColor=none;shape=mxgraph.alibaba_cloud.machine_learning;" vertex="1" parent="1">
          <mxGeometry x="785" y="421" width="49.8" height="50.099999999999994" as="geometry" />
        </mxCell>
        <mxCell id="ZYFgmV2ksfETaxVt1tsq-53" value="" style="rounded=0;whiteSpace=wrap;html=1;fillColor=none;dashed=1;strokeColor=light-dark(#797777, #ededed);" vertex="1" parent="1">
          <mxGeometry x="-388.76" y="120" width="140" height="460" as="geometry" />
        </mxCell>
        <mxCell id="ZYFgmV2ksfETaxVt1tsq-54" value="Bronze Layer" style="rounded=0;whiteSpace=wrap;html=1;fillColor=#ffe6cc;strokeColor=#d79b00;fontSize=20;" vertex="1" parent="1">
          <mxGeometry x="190.24" y="154" width="161" height="30" as="geometry" />
        </mxCell>
        <mxCell id="ZYFgmV2ksfETaxVt1tsq-55" value="" style="rounded=0;whiteSpace=wrap;html=1;fillColor=none;strokeColor=#d79b00;fontSize=20;" vertex="1" parent="1">
          <mxGeometry x="189.24" y="190" width="162" height="370" as="geometry" />
        </mxCell>
        <mxCell id="ZYFgmV2ksfETaxVt1tsq-56" value="" style="html=1;verticalLabelPosition=bottom;align=center;labelBackgroundColor=#ffffff;verticalAlign=top;strokeWidth=2;strokeColor=#d79b00;shadow=0;dashed=0;shape=mxgraph.ios7.icons.data;fillColor=#ffe6cc;" vertex="1" parent="1">
          <mxGeometry x="220.48000000000002" y="204" width="101" height="55.1" as="geometry" />
        </mxCell>
        <mxCell id="ZYFgmV2ksfETaxVt1tsq-57" value="Raw Data" style="text;html=1;align=center;verticalAlign=middle;whiteSpace=wrap;rounded=0;fontSize=14;" vertex="1" parent="1">
          <mxGeometry x="201.24" y="280.1" width="140" height="30" as="geometry" />
        </mxCell>
        <mxCell id="ZYFgmV2ksfETaxVt1tsq-58" value="" style="endArrow=none;html=1;rounded=0;entryX=0;entryY=0.703;entryDx=0;entryDy=0;entryPerimeter=0;strokeColor=light-dark(#817979, #595959);" edge="1" parent="1">
          <mxGeometry width="50" height="50" relative="1" as="geometry">
            <mxPoint x="331.46000000000004" y="320.02" as="sourcePoint" />
            <mxPoint x="220.48000000000002" y="319.99999999999994" as="targetPoint" />
          </mxGeometry>
        </mxCell>
        <mxCell id="ZYFgmV2ksfETaxVt1tsq-59" value="&lt;div style=&quot;text-align: left;&quot;&gt;&lt;span style=&quot;background-color: transparent; color: light-dark(rgb(0, 0, 0), rgb(255, 255, 255));&quot;&gt;&lt;b&gt;Object Type:&lt;/b&gt;&amp;nbsp;Table&lt;/span&gt;&lt;/div&gt;&lt;div style=&quot;text-align: left;&quot;&gt;&lt;b&gt;&lt;br&gt;&lt;/b&gt;&lt;/div&gt;&lt;div style=&quot;text-align: left;&quot;&gt;&lt;b&gt;Load:&lt;/b&gt;&lt;/div&gt;&lt;div style=&quot;text-align: left;&quot;&gt;&lt;div&gt;&lt;ul&gt;&lt;li&gt;Batch Processing&lt;/li&gt;&lt;li&gt;Full Load (Truncate &amp;amp; Insert)&lt;/li&gt;&lt;/ul&gt;&lt;/div&gt;&lt;/div&gt;&lt;div style=&quot;text-align: left;&quot;&gt;&lt;b&gt;No Transformations:&lt;/b&gt;&lt;/div&gt;&lt;div style=&quot;text-align: left;&quot;&gt;&lt;b style=&quot;background-color: transparent; color: light-dark(rgb(0, 0, 0), rgb(255, 255, 255));&quot;&gt;&lt;br&gt;&lt;/b&gt;&lt;/div&gt;&lt;div style=&quot;text-align: left;&quot;&gt;&lt;b style=&quot;background-color: transparent; color: light-dark(rgb(0, 0, 0), rgb(255, 255, 255));&quot;&gt;Data Model&lt;/b&gt;&lt;span style=&quot;background-color: transparent; color: light-dark(rgb(0, 0, 0), rgb(255, 255, 255));&quot;&gt; : None (as-in)&lt;/span&gt;&lt;/div&gt;" style="text;html=1;align=center;verticalAlign=middle;whiteSpace=wrap;rounded=0;" vertex="1" parent="1">
          <mxGeometry x="201.24" y="330" width="140" height="220" as="geometry" />
        </mxCell>
        <mxCell id="ZYFgmV2ksfETaxVt1tsq-67" value="Bronze Layer" style="rounded=0;whiteSpace=wrap;html=1;fillColor=#ffe6cc;strokeColor=#d79b00;fontSize=20;" vertex="1" parent="1">
          <mxGeometry x="362" y="154" width="161" height="30" as="geometry" />
        </mxCell>
        <mxCell id="ZYFgmV2ksfETaxVt1tsq-68" value="" style="rounded=0;whiteSpace=wrap;html=1;fillColor=none;strokeColor=#d79b00;fontSize=20;" vertex="1" parent="1">
          <mxGeometry x="361" y="190" width="162" height="370" as="geometry" />
        </mxCell>
        <mxCell id="ZYFgmV2ksfETaxVt1tsq-69" value="" style="html=1;verticalLabelPosition=bottom;align=center;labelBackgroundColor=#ffffff;verticalAlign=top;strokeWidth=2;strokeColor=#d79b00;shadow=0;dashed=0;shape=mxgraph.ios7.icons.data;fillColor=#ffe6cc;" vertex="1" parent="1">
          <mxGeometry x="392.24" y="204" width="101" height="55.1" as="geometry" />
        </mxCell>
        <mxCell id="ZYFgmV2ksfETaxVt1tsq-70" value="&lt;font style=&quot;font-size: 13px;&quot;&gt;Cleaned, Standardized data&lt;/font&gt;" style="text;html=1;align=center;verticalAlign=middle;whiteSpace=wrap;rounded=0;fontSize=14;" vertex="1" parent="1">
          <mxGeometry x="373" y="280.1" width="140" height="30" as="geometry" />
        </mxCell>
        <mxCell id="ZYFgmV2ksfETaxVt1tsq-71" value="" style="endArrow=none;html=1;rounded=0;entryX=0;entryY=0.703;entryDx=0;entryDy=0;entryPerimeter=0;strokeColor=light-dark(#817979, #595959);" edge="1" parent="1">
          <mxGeometry width="50" height="50" relative="1" as="geometry">
            <mxPoint x="503.22" y="320.02" as="sourcePoint" />
            <mxPoint x="392.24" y="319.99999999999994" as="targetPoint" />
          </mxGeometry>
        </mxCell>
        <mxCell id="ZYFgmV2ksfETaxVt1tsq-72" value="&lt;div style=&quot;text-align: left;&quot;&gt;&lt;span style=&quot;background-color: transparent; color: light-dark(rgb(0, 0, 0), rgb(255, 255, 255));&quot;&gt;&lt;b&gt;Object Type:&lt;/b&gt;&amp;nbsp;Table&lt;/span&gt;&lt;/div&gt;&lt;div style=&quot;text-align: left;&quot;&gt;&lt;b style=&quot;background-color: transparent; color: light-dark(rgb(0, 0, 0), rgb(255, 255, 255));&quot;&gt;Load:&lt;/b&gt;&lt;/div&gt;&lt;div style=&quot;text-align: left;&quot;&gt;&lt;div&gt;&lt;ul&gt;&lt;li&gt;Batch Processing&lt;/li&gt;&lt;li&gt;Full Load (Truncate &amp;amp; Insert)&lt;/li&gt;&lt;/ul&gt;&lt;/div&gt;&lt;/div&gt;&lt;div style=&quot;text-align: left;&quot;&gt;&lt;b&gt;No Transformations:&lt;/b&gt;&lt;/div&gt;&lt;div style=&quot;text-align: left;&quot;&gt;&lt;ul&gt;&lt;li&gt;&lt;div style=&quot;background-color: transparent; color: light-dark(rgb(0, 0, 0), rgb(255, 255, 255)); display: inline !important;&quot;&gt;Data Cleansing&lt;/div&gt;&lt;/li&gt;&lt;li&gt;Standardization&lt;/li&gt;&lt;li&gt;Data Normalization&lt;/li&gt;&lt;li&gt;Derived Columns&lt;/li&gt;&lt;li&gt;Data Enrichment&lt;/li&gt;&lt;/ul&gt;&lt;b style=&quot;background-color: transparent; color: light-dark(rgb(0, 0, 0), rgb(255, 255, 255));&quot;&gt;Data Model&lt;/b&gt;&lt;span style=&quot;background-color: transparent; color: light-dark(rgb(0, 0, 0), rgb(255, 255, 255));&quot;&gt; : None (as-in)&lt;/span&gt;&lt;/div&gt;" style="text;html=1;align=center;verticalAlign=middle;whiteSpace=wrap;rounded=0;" vertex="1" parent="1">
          <mxGeometry x="373" y="330" width="147" height="220" as="geometry" />
        </mxCell>
        <mxCell id="ZYFgmV2ksfETaxVt1tsq-73" value="" style="shape=singleArrow;whiteSpace=wrap;html=1;fillColor=#b1ddf0;strokeColor=#10739e;" vertex="1" parent="1">
          <mxGeometry x="330" y="306.5" width="40" height="44.5" as="geometry" />
        </mxCell>
        <mxCell id="ZYFgmV2ksfETaxVt1tsq-74" value="" style="shape=singleArrow;whiteSpace=wrap;html=1;fillColor=#b1ddf0;strokeColor=#10739e;" vertex="1" parent="1">
          <mxGeometry x="146" y="300" width="55.24" height="60" as="geometry" />
        </mxCell>
        <mxCell id="ZYFgmV2ksfETaxVt1tsq-78" value="" style="shape=singleArrow;whiteSpace=wrap;html=1;fillColor=#b1ddf0;strokeColor=#10739e;" vertex="1" parent="1">
          <mxGeometry x="504.76" y="306.5" width="40" height="44.5" as="geometry" />
        </mxCell>
      </root>
    </mxGraphModel>
  </diagram>
</mxfile>
